#!OML:ASF I:\Actors\actors\Patient Classification 2\Patient 1\Session 1\actor1.ASF
:FULLY-SPECIFIED
:DEGREES
149
root -0.570621 18.6268 4.93612 -4.00862 -4.34739 -2.97093
lowerback 20.019 0.865964 0.454498
upperback 10.4022 1.19124 1.0924
thorax 0.0207113 0.565978 0.668777
lowerneck -6.06435 -1.4668 0.900294
upperneck 27.6793 -3.1285 3.34986
head 9.78373 -1.01185 0.700115
rclavicle -1.97542e-014 -1.78906e-014
rhumerus -11.6153 63.3747 -93.6824
rradius 141.785
rwrist -13.6282
rhand -43.7275 -31.1538
rfingers 7.12502
rthumb -16.5589 -60.4673
lclavicle -1.97542e-014 -1.78906e-014
lhumerus 2.96716 -62.725 89.3923
lradius 134.956
lwrist 23.678
lhand -37.1458 -59.3456
lfingers 7.12502
lthumb -10.2153 -29.6136
rfemur 9.61596 0.528117 16.7608
rtibia 3.57812e-014
rfoot -12.612 -11.087
rtoes -8.54982
lfemur -4.58956 -1.68755 -11.7409
ltibia 26.3597
lfoot -19.5801 10.7316
ltoes -56.2338
150
root -0.56809 18.6198 4.91095 -4.04806 -4.37576 -3.01717
lowerback 20.3564 0.88241 0.453479
upperback 10.6899 1.21076 1.14796
thorax 0.162972 0.572723 0.723353
lowerneck -5.95909 -1.4406 0.919872
upperneck 27.688 -3.10733 3.40745
head 9.76732 -0.995219 0.719913
rclavicle -9.74045e-015 1.07344e-014
rhumerus -11.8951 63.4127 -93.9977
rradius 141.758
rwrist -13.6615
rhand -43.5959 -31.118
rfingers 7.12502
rthumb -16.4322 -60.442
lclavicle -9.74045e-015 1.07344e-014
lhumerus 2.95266 -62.7909 89.3835
lradius 134.97
lwrist 23.6115
lhand -37.8429 -59.6127
lfingers 7.12502
lthumb -10.8877 -29.9149
rfemur 9.56375 0.555031 16.8149
rtibia 1.43125e-014
rfoot -12.5149 -11.1694
rtoes -8.78778
lfemur -4.782 -1.49642 -11.6574
ltibia 26.6239
lfoot -19.5518 10.5783
ltoes -56.2067
151
root -0.56553 18.614 4.88781 -4.04594 -4.40903 -3.01768
lowerback 20.513 0.933578 0.399081
upperback 11.0551 1.26375 1.22605
thorax 0.479468 0.593106 0.829002
lowerneck -5.84233 -1.42747 0.92117
upperneck 27.5862 -3.08174 3.41415
head 9.70764 -0.985429 0.725178
rclavicle 7.35503e-015 1.30204e-014
rhumerus -12.0268 63.4241 -94.0584
rradius 141.764
rwrist -13.4565
rhand -43.3822 -31.1887
rfingers 7.12502
rthumb -16.2264 -60.5296
lclavicle 7.35503e-015 1.30204e-014
lhumerus 3.17984 -62.8394 89.2436
lradius 135.038
lwrist 23.8816
lhand -38.0834 -60.1885
lfingers 7.12502
lthumb -11.1197 -30.5031
rfemur 9.46462 0.587722 16.8211
rtibia 3.57812e-014
rfoot -12.3924 -11.2771
rtoes -9.1712
lfemur -5.01684 -1.21647 -11.6142
ltibia 26.8891
lfoot -19.4863 10.394
ltoes -56.2436
152
root -0.563079 18.6086 4.86848 -4.01114 -4.46334 -3.00046
lowerback 20.751 0.954593 0.486052
upperback 11.3212 1.30142 1.18211
thorax 0.654489 0.616011 0.725949
lowerneck -5.69332 -1.41803 1.0182
upperneck 27.526 -3.07994 3.42983
head 9.65665 -0.976022 0.715094
rclavicle -5.70264e-015 1.05356e-014
rhumerus -12.7415 63.4836 -94.7166
rradius 141.805
rwrist -13.1478
rhand -43.3349 -31.2877
rfingers 7.12502
rthumb -16.1809 -60.6323
lclavicle -5.70264e-015 1.05356e-014
lhumerus 3.11168 -62.9687 89.1845
lradius 135.147
lwrist 24.2569
lhand -37.9548 -60.7141
lfingers 7.12502
lthumb -10.9956 -31.0221
rfemur 9.33586 0.640954 16.8079
rtibia -2.38542e-015
rfoot -12.27 -11.3774
rtoes -9.65899
lfemur -5.25321 -0.883068 -11.5888
ltibia 27.1253
lfoot -19.3849 10.2089
ltoes -56.3438
153
root -0.562179 18.6031 4.85164 -3.98751 -4.53893 -3.00631
lowerback 20.8928 0.9805 0.478598
upperback 11.6321 1.32849 1.19473
thorax 0.924232 0.627444 0.740447
lowerneck -5.58898 -1.38683 0.996116
upperneck 27.4556 -3.04693 3.50983
head 9.61256 -0.957391 0.750495
rclavicle 2.77056e-015 1.8897e-014
rhumerus -13.2789 63.6647 -95.1557
rradius 141.822
rwrist -13.0748
rhand -43.3196 -31.496
rfingers 7.12502
rthumb -16.1661 -60.8418
lclavicle 2.77056e-015 1.8897e-014
lhumerus 3.0756 -63.0843 89.1273
lradius 135.2
lwrist 24.3778
lhand -38.1262 -60.95
lfingers 7.12502
lthumb -11.161 -31.2669
rfemur 9.23353 0.714469 16.8197
rtibia 3.33958e-014
rfoot -12.2046 -11.4224
rtoes -9.84467
lfemur -5.42025 -0.662127 -11.5494
ltibia 27.3079
lfoot -19.3748 10.1055
ltoes -56.4024
154
root -0.561098 18.5994 4.83631 -3.98377 -4.60258 -3.01284
lowerback 21.1095 1.00293 0.406914
upperback 11.8753 1.34249 1.26344
thorax 1.08104 0.627032 0.851482
lowerneck -5.46986 -1.35672 0.83142
upperneck 27.4029 -2.99564 3.59552
head 9.57318 -0.943793 0.814346
rclavicle -1.55627e-014 -2.01673e-014
rhumerus -13.64 64.0357 -95.4207
rradius 141.859
rwrist -13.3351
rhand -43.5103 -32.1794
rfingers 7.12502
rthumb -16.3497 -61.5103
lclavicle -1.55627e-014 -2.01673e-014
lhumerus 2.78552 -63.2201 89.3956
lradius 135.27
lwrist 24.4003
lhand -38.3142 -61.0657
lfingers 7.12502
lthumb -11.3423 -31.3924
rfemur 9.16754 0.777388 16.8287
rtibia -2.70347e-014
rfoot -12.1984 -11.4307
rtoes -9.74057
lfemur -5.52469 -0.651028 -11.5392
ltibia 27.4351
lfoot -19.4476 10.1633
ltoes -56.3997
155
root -0.557797 18.5983 4.82238 -3.9911 -4.65177 -2.98061
lowerback 21.3096 1.00549 0.29394
upperback 12.0868 1.32421 1.35645
thorax 1.21107 0.607159 1.01801
lowerneck -5.37071 -1.32626 0.552267
upperneck 27.3236 -2.91979 3.65566
head 9.52805 -0.932973 0.891024
rclavicle -1.0051e-014 -9.57894e-015
rhumerus -13.7829 64.3953 -95.4643
rradius 141.895
rwrist -13.4662
rhand -43.6134 -32.7787
rfingers 7.12502
rthumb -16.449 -62.1013
lclavicle -1.0051e-014 -9.57894e-015
lhumerus 2.59693 -63.2168 89.7135
lradius 135.331
lwrist 24.4683
lhand -38.069 -60.9374
lfingers 7.12502
lthumb -11.1059 -31.2512
rfemur 9.1152 0.829805 16.789
rtibia 7.95139e-016
rfoot -12.1784 -11.4531
rtoes -9.7186
lfemur -5.59878 -0.597301 -11.5733
ltibia 27.5056
lfoot -19.4553 10.1693
ltoes -56.3695
156
root -0.553631 18.5993 4.81113 -3.99285 -4.68382 -2.95203
lowerback 21.2836 1.01588 0.241342
upperback 12.3643 1.32341 1.40294
thorax 1.52842 0.600407 1.10178
lowerneck -5.31532 -1.32534 0.472745
upperneck 27.0913 -2.88191 3.60836
head 9.43322 -0.932465 0.891079
rclavicle 8.59744e-015 5.71506e-015
rhumerus -13.4383 64.5535 -95.1199
rradius 141.917
rwrist -13.4627
rhand -43.6427 -32.9287
rfingers 7.12502
rthumb -16.4772 -62.249
lclavicle 8.59744e-015 5.71506e-015
lhumerus 2.81438 -63.2351 89.6998
lradius 135.35
lwrist 24.6426
lhand -37.7979 -60.7084
lfingers 7.12502
lthumb -10.8444 -31.0084
rfemur 9.06885 0.86477 16.7496
rtibia 4.77083e-015
rfoot -12.1256 -11.4787
rtoes -9.71422
lfemur -5.64847 -0.475112 -11.5952
ltibia 27.5187
lfoot -19.4274 10.1136
ltoes -56.3446
157
root -0.549632 18.6022 4.80477 -3.94847 -4.68 -2.96589
lowerback 21.3913 1.00256 0.301409
upperback 12.4545 1.31525 1.39858
thorax 1.57691 0.599019 1.06455
lowerneck -5.32185 -1.33775 0.609814
upperneck 27.0075 -2.86371 3.40424
head 9.39911 -0.932368 0.798116
rclavicle 8.02593e-015 -2.26118e-015
rhumerus -13.3666 64.5866 -95.1137
rradius 141.922
rwrist -13.4006
rhand -43.6295 -32.702
rfingers 7.12502
rthumb -16.4645 -62.0233
lclavicle 8.02593e-015 -2.26118e-015
lhumerus 2.68216 -63.2878 89.9556
lradius 135.395
lwrist 24.7687
lhand -37.6656 -60.928
lfingers 7.12502
lthumb -10.7167 -31.2214
rfemur 9.0052 0.858496 16.7512
rtibia 1.59028e-014
rfoot -12.1 -11.4695
rtoes -9.53916
lfemur -5.7007 -0.455857 -11.5854
ltibia 27.4864
lfoot -19.4003 10.1179
ltoes -56.3185
158
root -0.545993 18.6066 4.80229 -3.83712 -4.67916 -2.95193
lowerback 21.3803 0.99425 0.327625
upperback 12.4957 1.30803 1.39819
thorax 1.62863 0.59657 1.05148
lowerneck -5.47926 -1.33787 0.679968
upperneck 27.0502 -2.84699 3.27686
head 9.44095 -0.927939 0.742592
rclavicle -1.05604e-014 -9.54166e-015
rhumerus -13.224 64.6314 -95.0258
rradius 141.905
rwrist -13.2252
rhand -43.6393 -32.5608
rfingers 7.12502
rthumb -16.4739 -61.8813
lclavicle -1.05604e-014 -9.54166e-015
lhumerus 2.66094 -63.267 90.1602
lradius 135.469
lwrist 24.8419
lhand -37.4812 -61.0322
lfingers 7.12502
lthumb -10.5389 -31.3164
rfemur 8.87988 0.853517 16.7194
rtibia 1.74931e-014
rfoot -12.104 -11.4502
rtoes -9.56823
lfemur -5.7904 -0.42579 -11.6067
ltibia 27.4198
lfoot -19.3268 10.107
ltoes -56.3278
